<svg xmlns="http://www.w3.org/2000/svg" version="1.1" xmlns:xlink="http://www.w3.org/1999/xlink" xmlns:svgjs="http://svgjs.dev/svgjs" width="1000" height="1000" viewBox="0 0 1000 1000"><rect width="1000" height="1000" fill="#a437db"></rect><g transform="matrix(0.7,0,0,0.7,149.57575757575756,282.1265587044535)"><svg viewBox="0 0 396 247" data-background-color="#a437db" preserveAspectRatio="xMidYMid meet" height="623" width="1000" xmlns="http://www.w3.org/2000/svg" xmlns:xlink="http://www.w3.org/1999/xlink"><defs></defs><g id="tight-bounds" transform="matrix(1,0,0,1,0.2400000000000091,-0.09999999999999432)"><svg viewBox="0 0 395.52 247.2" height="247.2" width="395.52"><g><svg></svg></g><g><svg viewBox="0 0 395.52 247.2" height="247.2" width="395.52"><g transform="matrix(4.311512141048621, 0, 0, 4.311512141048621, 17.568992694114343, 1)"><svg xmlns="http://www.w3.org/2000/svg" xmlns:xlink="http://www.w3.org/1999/xlink" version="1.1" x="0" y="0" viewBox="8.206999778747559 21.564998626708984 83.58599090576172 56.87099838256836" enable-background="new 0 0 100 100" xml:space="preserve" height="56.87099838256836" width="83.58599090576172" class="icon-none" data-fill-palette-color="accent" id="none"><g fill="#ffffff" data-fill-palette-color="accent"><path d="M53.521 57.605h-7.042l1.162-3.948c-0.489-0.565-0.755-1.274-0.755-2.025 0-1.717 1.397-3.115 3.114-3.115 1.718 0 3.115 1.397 3.115 3.115 0 0.751-0.267 1.46-0.756 2.026L53.521 57.605zM47.815 56.605h4.369l-0.951-3.234 0.221-0.211c0.426-0.406 0.661-0.949 0.661-1.528 0-1.166-0.949-2.115-2.115-2.115s-2.114 0.949-2.114 2.115c0 0.579 0.235 1.122 0.661 1.529l0.221 0.21L47.815 56.605z" fill="#ffffff" data-fill-palette-color="accent"></path><path d="M84.912 78.436H15.088l-2.976-22.22H8.207V45.603h1.435c-0.43-3.615-0.021-8.677 3.932-13.296 5.923-6.922 17.835-10.53 35.412-10.728v-0.005l0.5-0.009 0.516 0.005 1.011-0.005v0.014c17.576 0.198 29.488 3.806 35.411 10.728 3.953 4.619 4.362 9.681 3.933 13.296h1.436v10.613h-3.905L84.912 78.436zM15.963 77.436h68.074l2.976-22.22h3.78v-8.613h-1.587l0.086-0.574c0.51-3.434 0.295-8.49-3.627-13.073-5.782-6.756-17.61-10.25-35.156-10.382l-0.756-0.007-0.263 0.007C31.944 22.707 20.116 26.2 14.334 32.957c-3.922 4.583-4.137 9.639-3.626 13.072l0.085 0.574H9.207v8.613h3.78L15.963 77.436zM51.407 62.577h-2.815c-3.5 0-6.348-2.848-6.348-6.349V41.645h15.512v14.584C57.756 59.729 54.908 62.577 51.407 62.577zM43.244 42.645v13.584c0 2.949 2.399 5.349 5.348 5.349h2.815c2.949 0 5.349-2.399 5.349-5.349V42.645H43.244z" fill="#ffffff" data-fill-palette-color="accent"></path></g></svg></g><rect width="348.05760000000004" height="203.8343772086254" fill="#a437db" y="21.682811395687295" x="23.731199999999973" data-fill-palette-color="quaternary"></rect><g transform="matrix(1,0,0,1,39.55199999999999,46.9392191237592)"><svg viewBox="0 0 316.416 153.32156175248159" height="153.32156175248159" width="316.416"><g><svg viewBox="0 0 316.416 153.32156175248159" height="153.32156175248159" width="316.416"><g><svg viewBox="0 0 316.416 153.32156175248159" height="153.32156175248159" width="316.416"><g><svg viewBox="0 0 316.416 153.32156175248159" height="153.32156175248159" width="316.416"><g><svg viewBox="0 0 316.416 153.32156175248159" height="153.32156175248159" width="316.416"><g><svg viewBox="0 0 316.416 106.98422426706612" height="106.98422426706612" width="316.416"><g transform="matrix(1,0,0,1,0,0)"><svg width="316.416" viewBox="-1.7100000381469727 -38.09000015258789 114.08000183105469 38.58000183105469" height="106.98422426706612" data-palette-color="#ffffff"><path d="M2.91-0.17L2.91-0.17Q2 0.49 0.84 0.49-0.32 0.49-1.01-0.11-1.71-0.71-1.71-1.49-1.71-2.27-1.46-2.64L-1.46-2.64Q-0.76-2.22 0.28-2.22 1.32-2.22 1.84-2.5 2.37-2.78 2.86-3.27L2.86-3.27 6.32-13.55 6.81-15.23Q7.03-15.99 7.03-16.63L7.03-16.63Q7.03-18.85 4.93-19.46L4.93-19.46Q6.86-20.19 7.64-21.04L7.64-21.04Q8.86-22.39 9.57-24.58L9.57-24.58 12.26-33.59Q11.47-34.64 10.4-34.64 9.33-34.64 8.4-34.18L8.4-34.18Q8.15-34.62 8.15-35.17 8.15-35.72 8.39-36.21 8.62-36.69 9.03-37.06L9.03-37.06Q9.96-37.84 11.67-37.84 13.38-37.84 14.58-36.82L14.58-36.82Q15.8-37.84 17.61-37.84 19.43-37.84 20.51-36.87L20.51-36.87Q22.07-37.84 23.68-37.84 25.29-37.84 26.18-37.23 27.08-36.62 27.08-35.57L27.08-35.57Q27.08-35.08 26.78-34.72L26.78-34.72Q26.22-35.13 25.46-35.13L25.46-35.13Q23.83-35.13 23.34-32.91L23.34-32.91 26.46-22.92Q27.05-21.04 29.39-20L29.39-20Q30.05-19.7 30.74-19.46L30.74-19.46Q28.3-18.65 28.3-17.04L28.3-17.04Q28.3-16.43 28.49-15.97L28.49-15.97 33.15-3.47Q34.23-2.34 35.33-2.34 36.43-2.34 37.04-2.76L37.04-2.76Q37.3-2.56 37.3-2.03 37.3-1.49 37.13-1.04 36.96-0.59 36.6-0.24L36.6-0.24Q35.82 0.49 34.3 0.49 32.79 0.49 31.67-0.34L31.67-0.34Q30.4 0.49 28.8 0.49 27.2 0.49 26.05-0.32L26.05-0.32Q24.95 0.49 23.46 0.49 21.97 0.49 21-0.13 20.02-0.76 19.97-1.9L19.97-1.9Q19.97-2.59 20.24-2.76L20.24-2.76Q20.9-2.34 21.58-2.34L21.58-2.34Q23.02-2.34 23.61-2.93L23.61-2.93 21.75-9.16 8.54-9.16 6.93-3.76Q7.93-2.22 9.36-2.22 10.79-2.22 11.5-2.64L11.5-2.64Q11.77-2.2 11.77-1.43 11.77-0.66 11.01-0.09 10.25 0.49 9.06 0.49 7.86 0.49 6.86-0.12L6.86-0.12Q5.98 0.49 4.85 0.49 3.71 0.49 2.91-0.17ZM9.52-12.45L20.75-12.45 15.09-31.27 9.52-12.45ZM24.15-10.03L25.42-6.47Q25.85-6.47 25.85-7.45L25.85-7.45Q25.85-9.16 25.34-10.77L25.34-10.77 24.41-13.62Q23.44-16.85 23.44-17.68L23.44-17.68Q23.41-19.04 24.63-19.48L24.63-19.48Q22.95-19.82 22.58-20.53L22.58-20.53Q22.41-20.83 22.3-21 22.19-21.17 22.08-21.4 21.97-21.63 21.83-22 21.68-22.36 21.44-23.05L21.44-23.05 19.92-27.61Q19.38-29.32 18.33-30.2L18.33-30.2Q18.02-30.47 17.75-30.52L17.75-30.52Q19.38-24.61 19.9-22.95L19.9-22.95Q23.44-12.06 24.15-10.03L24.15-10.03ZM32.67-4.13L32.62-4.27 32.67-4.13ZM49.39-0.29L49.39-0.29Q48.14 0.49 46.56 0.49 44.97 0.49 43.72-0.29L43.72-0.29Q42.48 0.49 41.42 0.49 40.35 0.49 39.67 0.31 38.99 0.12 38.47-0.2L38.47-0.2Q37.42-0.83 37.42-1.78L37.42-1.78Q37.42-2.27 37.69-2.64L37.69-2.64Q38.23-2.22 39.06-2.22L39.06-2.22Q41.23-2.22 42.06-4.08L42.06-4.08 42.06-16.02Q42.06-17.14 41.6-17.68L41.6-17.68Q40.87-18.58 39.08-19.46L39.08-19.46Q40.74-20.21 41.23-20.8L41.23-20.8Q42.06-21.75 42.06-22.95L42.06-22.95 42.06-33.25Q41.23-35.13 39.06-35.13L39.06-35.13Q38.23-35.13 37.69-34.72L37.69-34.72Q37.42-35.08 37.42-35.56 37.42-36.04 37.71-36.45 37.99-36.87 38.47-37.16L38.47-37.16Q39.6-37.84 41.05-37.84 42.5-37.84 43.72-37.04L43.72-37.04Q44.99-37.84 46.56-37.84 48.12-37.84 49.39-37.04L49.39-37.04Q52.15-38.09 55.5-38.09 58.86-38.09 61.13-37.48 63.4-36.87 65.04-35.74L65.04-35.74Q68.33-33.47 69.14-29.42L69.14-29.42Q69.46-27.61 71.46-26.68L71.46-26.68Q69.55-25.61 68.97-23.27L68.97-23.27Q67.77-18.43 62.99-17.24L62.99-17.24Q65.45-16.58 67.01-14.53L67.01-14.53Q68.63-12.4 68.63-9.52L68.63-9.52 68.63-7.08Q68.63-3.56 70.9-2.54L70.9-2.54Q71.58-2.22 72.39-2.22 73.19-2.22 73.73-2.64L73.73-2.64Q74-2.27 74-1.79 74-1.32 73.75-0.9 73.51-0.49 73.09-0.2L73.09-0.2Q72.21 0.49 71.04 0.49 69.87 0.49 68.75-0.15L68.75-0.15Q66.7 0.98 64.91 0.07L64.91 0.07Q64.23 0.49 63.47 0.49 62.72 0.49 62.02 0.15 61.33-0.2 60.79-0.98L60.79-0.98Q59.64-2.66 59.64-6.15L59.64-6.15 59.64-7.96Q59.64-13.6 56.42-15.28L56.42-15.28Q55.34-15.84 53.9-15.84L53.9-15.84 51.05-15.84 51.05-3.96Q51.71-2.22 53.56-2.22L53.56-2.22Q54.39-2.22 54.93-2.64L54.93-2.64Q55.2-2.27 55.2-1.56 55.2-0.85 54.43-0.18 53.66 0.49 52.12 0.49 50.58 0.49 49.39-0.29ZM55.73-34.84L55.73-34.84Q51.05-34.84 51.05-31.2L51.05-31.2 51.05-21.22Q51.05-19.95 52.05-19.51L52.05-19.51Q53-19.09 54.87-19.09 56.74-19.09 57.48-19.3 58.23-19.51 58.76-20.02L58.76-20.02Q59.86-21.07 59.86-23.54L59.86-23.54 59.86-30.66Q59.86-33.72 57.32-34.57L57.32-34.57Q56.56-34.84 55.73-34.84ZM61.5-33.28L61.5-33.28Q62.25-31.57 62.25-27.81L62.25-27.81Q62.25-21.34 61.64-20.07L61.64-20.07Q62.99-20.34 63.57-23.66L63.57-23.66 63.77-24.66Q64.04-26.25 65.33-26.68L65.33-26.68Q64.38-27 64.11-27.44L64.11-27.44Q63.82-27.95 63.58-29.19 63.35-30.42 63.11-31.18 62.86-31.93 62.6-32.37L62.6-32.37Q62.13-33.15 61.5-33.28ZM44.41-9.64L44.41-6.47Q45.63-6.93 45.75-9.67L45.75-9.67Q45.9-12.4 45.9-17.24 45.9-22.07 45.88-23.67 45.87-25.27 45.85-26.25L45.85-26.25Q45.77-29.13 45.3-29.72 44.82-30.32 44.41-30.52L44.41-30.52Q44.41-22.02 44.11-20.85L44.11-20.85Q43.77-19.87 42.45-19.46L42.45-19.46Q43.92-18.95 44.11-18.21L44.11-18.21Q44.41-17.04 44.41-9.64L44.41-9.64ZM61.25-13.16L61.25-13.16Q62.23-12.06 62.23-10.47L62.23-10.47 62.23-7.25Q62.23-3.2 63.84-2.93L63.84-2.93Q64.28-2.86 64.69-2.95L64.69-2.95Q63.82-4.32 63.82-5.83L63.82-5.83 63.82-9.25Q63.82-11.18 63.28-11.99L63.28-11.99Q62.35-13.35 61.25-13.16ZM87.01-0.27L87.01-0.27Q85.79 0.49 84.25 0.49 82.71 0.49 81.61-0.29L81.61-0.29Q80.37 0.49 79.32 0.49 78.27 0.49 77.58 0.31 76.9 0.12 76.39-0.2L76.39-0.2Q75.34-0.83 75.34-1.78L75.34-1.78Q75.34-2.27 75.61-2.64L75.61-2.64Q76.14-2.22 76.97-2.22L76.97-2.22Q79.15-2.22 79.98-4.08L79.98-4.08 79.98-16.02Q79.98-17.92 78.07-18.9L78.07-18.9 77-19.46Q79.17-20.46 79.71-21.63L79.71-21.63Q79.98-22.17 79.98-22.95L79.98-22.95 79.98-33.25Q79.15-35.13 76.97-35.13L76.97-35.13Q76.14-35.13 75.61-34.72L75.61-34.72Q75.34-35.08 75.34-35.56 75.34-36.04 75.62-36.45 75.9-36.87 76.39-37.16L76.39-37.16Q77.51-37.84 78.94-37.84 80.37-37.84 81.61-37.06L81.61-37.06Q82.71-37.84 84.26-37.84 85.81-37.84 87.01-37.06L87.01-37.06Q88.15-37.84 89.57-37.84L89.57-37.84Q91.65-37.84 92.55-36.45L92.55-36.45Q92.82-36.01 92.82-35.52 92.82-35.03 92.52-34.72L92.52-34.72Q91.99-35.13 91.18-35.13L91.18-35.13Q89.3-35.13 88.67-33.3L88.67-33.3 88.67-20.75 99.9-34.06Q99.9-35.16 98.68-35.16 97.46-35.16 96.65-34.69L96.65-34.69Q96.38-35.13 96.38-35.83 96.38-36.52 97.11-37.18 97.85-37.84 99.15-37.84 100.46-37.84 101.31-37.21L101.31-37.21Q102.17-37.84 103.22-37.84 104.27-37.84 105.1-37.18L105.1-37.18Q105.93-37.84 106.78-37.84 107.64-37.84 108.14-37.68 108.64-37.52 109-37.26L109-37.26Q109.86-36.62 109.86-35.84 109.86-35.06 109.61-34.69L109.61-34.69Q109.1-34.86 108.44-34.86L108.44-34.86Q107.1-34.86 106.48-34.59 105.85-34.33 105.28-33.98 104.71-33.64 104.12-33.2L104.12-33.2 103-32.37Q102.44-31.93 102.09-31.57L102.09-31.57 96.5-25 106.78-6.3Q108.69-2.88 109.83-2.39L109.83-2.39Q110.25-2.22 110.91-2.22 111.57-2.22 112.1-2.64L112.1-2.64Q112.37-2.27 112.37-1.79 112.37-1.32 112.1-0.9 111.84-0.49 111.4-0.2L111.4-0.2Q110.4 0.49 108.86 0.49 107.32 0.49 106.07-0.29L106.07-0.29Q104.83 0.49 103.24 0.49 101.66 0.49 100.41-0.29L100.41-0.29Q99.16 0.49 97.69 0.49 96.21 0.49 95.39-0.18 94.58-0.85 94.58-1.78L94.58-1.78Q94.58-2.27 94.84-2.64L94.84-2.64Q95.38-2.22 96.21-2.22L96.21-2.22Q97.75-2.22 98.48-3.42L98.48-3.42 90.94-18.51 88.67-15.84 88.67-4.05Q89.3-2.22 91.18-2.22L91.18-2.22Q91.99-2.22 92.52-2.64L92.52-2.64Q92.82-2.32 92.82-1.83 92.82-1.34 92.54-0.9 92.26-0.46 91.82-0.15L91.82-0.15Q90.89 0.49 89.57 0.49L89.57 0.49Q88.18 0.49 87.01-0.27ZM82.27-9.64L82.27-6.47Q83.49-6.93 83.61-9.67L83.61-9.67Q83.76-12.4 83.76-17.24 83.76-22.07 83.75-23.67 83.74-25.27 83.71-26.25L83.71-26.25Q83.64-29.13 83.16-29.72 82.69-30.32 82.27-30.52L82.27-30.52Q82.27-22.02 81.98-20.85L81.98-20.85Q81.64-19.87 80.32-19.46L80.32-19.46Q81.78-18.95 81.98-18.21L81.98-18.21Q82.27-17.04 82.27-9.64L82.27-9.64ZM92.77-20.02L99.48-6.47Q99.78-6.86 99.78-7.62L99.78-7.62Q99.78-9.28 98.63-11.4L98.63-11.4 93.87-21.17 92.77-20.02Z" opacity="1" transform="matrix(1,0,0,1,0,0)" fill="#ffffff" class="undefined-text-0" data-fill-palette-color="primary" id="text-0"></path></svg></g></svg></g><g transform="matrix(1,0,0,1,0,132.24063199513802)"><svg viewBox="0 0 316.416 21.08092975734355" height="21.08092975734355" width="316.416"><g transform="matrix(1,0,0,1,0,0)"><svg width="316.416" viewBox="1.2699999809265137 -41.5 688.1399536132812 45.849998474121094" height="21.08092975734355" data-palette-color="#ffffff"><path d="M22.46-35.84L22.46-35.84Q22.22-32.86 22.27-29.91 22.31-26.95 22.22-24.02L22.22-24.02 16.8-24.22Q16.75-22.51 16.72-20.85 16.7-19.19 16.7-17.48L16.7-17.48Q16.7-15.43 16.72-13.45 16.75-11.47 16.8-9.42L16.8-9.42 21.78-9.33Q21.68-7.91 21.68-6.45 21.68-4.98 21.68-3.52L21.68-3.52Q21.68-2.29 21.75-1.07 21.83 0.15 22.07 1.32L22.07 1.32 4.54 1.61Q4.54-0.78 4.49-3.1 4.44-5.42 4.3-7.81L4.3-7.81 7.47-7.86Q7.23-12.45 6.91-16.94 6.59-21.44 6.25-25.98L6.25-25.98 1.61-26.56Q1.51-28.61 1.44-30.64 1.37-32.67 1.27-34.72L1.27-34.72Q6.59-34.91 11.84-35.18 17.09-35.45 22.46-35.84ZM70.41-1.37L70.41 0.83Q69.48 0.78 68.6 0.68L68.6 0.68Q67.87 0.59 67.16 0.54 66.45 0.49 66.11 0.49L66.11 0.49Q64.21 0.49 62.3 0.56 60.4 0.63 58.54 0.83L58.54 0.83Q58.59-1.22 58.62-3.2 58.64-5.18 58.64-7.23L58.64-7.23Q58.64-10.89 58.52-14.5 58.4-18.12 58.3-21.73L58.3-21.73 48.04 1.46Q45.8-4.64 43.23-10.52 40.67-16.41 37.89-22.27L37.89-22.27 38.67 1.86Q38.13 1.86 37.57 1.83 37.01 1.81 36.42 1.81L36.42 1.81Q34.57 1.81 32.79 1.95 31 2.1 29.2 2.25L29.2 2.25Q29.44-2.29 29.68-6.79 29.93-11.28 29.93-15.82L29.93-15.82Q29.93-21.14 29.86-26.42 29.78-31.69 29.73-37.01L29.73-37.01Q33.25-37.01 36.59-37.21 39.94-37.4 43.45-37.74L43.45-37.74Q44.63-33.84 45.87-30 47.12-26.17 48.53-22.36L48.53-22.36Q50.05-25.98 51.98-29.44 53.9-32.91 55.91-36.33L55.91-36.33Q59.23-36.43 62.47-36.52 65.72-36.62 69.04-36.67L69.04-36.67Q69.19-32.28 69.41-27.98 69.63-23.68 69.82-19.29L69.82-19.29Q69.97-15.82 70.09-12.35 70.21-8.89 70.31-5.47L70.31-5.47 70.41-1.37ZM119.14-1.37L119.14 0.83Q118.21 0.78 117.33 0.68L117.33 0.68Q116.6 0.59 115.89 0.54 115.18 0.49 114.84 0.49L114.84 0.49Q112.93 0.49 111.03 0.56 109.13 0.63 107.27 0.83L107.27 0.83Q107.32-1.22 107.34-3.2 107.37-5.18 107.37-7.23L107.37-7.23Q107.37-10.89 107.25-14.5 107.12-18.12 107.03-21.73L107.03-21.73 96.77 1.46Q94.53-4.64 91.96-10.52 89.4-16.41 86.62-22.27L86.62-22.27 87.4 1.86Q86.86 1.86 86.3 1.83 85.74 1.81 85.15 1.81L85.15 1.81Q83.3 1.81 81.51 1.95 79.73 2.1 77.92 2.25L77.92 2.25Q78.17-2.29 78.41-6.79 78.66-11.28 78.66-15.82L78.66-15.82Q78.66-21.14 78.58-26.42 78.51-31.69 78.46-37.01L78.46-37.01Q81.98-37.01 85.32-37.21 88.67-37.4 92.18-37.74L92.18-37.74Q93.35-33.84 94.6-30 95.84-26.17 97.26-22.36L97.26-22.36Q98.77-25.98 100.7-29.44 102.63-32.91 104.63-36.33L104.63-36.33Q107.95-36.43 111.2-36.52 114.45-36.62 117.77-36.67L117.77-36.67Q117.91-32.28 118.13-27.98 118.35-23.68 118.55-19.29L118.55-19.29Q118.7-15.82 118.82-12.35 118.94-8.89 119.04-5.47L119.04-5.47 119.14-1.37ZM158.2-0.15L158.2-0.15 150.77 0.98Q149.99-1.51 149.21-3.98 148.43-6.45 147.7-8.94L147.7-8.94 135.69-8.5 134.17-2 126.65-2Q127.34-10.3 128.07-18.51 128.8-26.71 129.48-34.96L129.48-34.96Q133-35.55 136.49-35.94 139.98-36.33 143.55-36.33L143.55-36.33Q147.89-36.33 152.24-36.18L152.24-36.18Q153.02-31.1 153.78-26.05 154.53-21 155.36-15.92L155.36-15.92Q155.95-11.91 156.66-8.01 157.37-4.1 158.2-0.15ZM136.61-15.33L145.99-15.58Q145.94-16.02 145.74-17.21 145.55-18.41 145.31-19.75 145.06-21.09 144.74-22.19 144.43-23.29 144.13-23.49L144.13-23.49Q144.04-23.54 143.67-23.58 143.3-23.63 142.89-23.68 142.47-23.73 142.08-23.73 141.69-23.73 141.55-23.73L141.55-23.73Q141.3-23.73 140.89-23.73 140.47-23.73 140.01-23.71 139.54-23.68 139.13-23.58 138.71-23.49 138.57-23.34L138.57-23.34Q138.47-23.29 138.32-22.71 138.18-22.12 137.96-21.26 137.74-20.41 137.52-19.43 137.3-18.46 137.1-17.58 136.91-16.7 136.78-16.06 136.66-15.43 136.61-15.33L136.61-15.33ZM201.26-15.72L201.26-15.72Q201.26-11.43 201.24-7.25 201.21-3.08 201.16 1.22L201.16 1.22Q198.13 1.07 195.16 1.07L195.16 1.07Q193.69 1.07 192.2 1.22 190.71 1.37 189.25 1.61L189.25 1.61Q187.39-2.44 185.54-6.42 183.68-10.4 181.83-14.45L181.83-14.45Q180.46-17.43 179.24-20.41 178.02-23.39 176.8-26.42L176.8-26.42Q176.36-19.82 175.89-13.31 175.43-6.79 175.14-0.2L175.14-0.2 164.59-0.49Q164.35-9.86 164.15-19.14 163.95-28.42 163.47-37.79L163.47-37.79 182.56-37.89Q183.53-35.45 184.39-32.98 185.24-30.52 186.03-27.98L186.03-27.98Q187.15-24.12 188.56-20.34 189.98-16.55 191.4-12.74L191.4-12.74Q191.35-18.85 191.18-24.9 191.01-30.96 190.91-37.11L190.91-37.11 200.77-35.94Q200.97-30.86 201.11-25.83 201.26-20.8 201.26-15.72ZM245.2-16.11L245.2-16.11Q245.2-13.33 245.08-10.6 244.96-7.86 244.57-5.08L244.57-5.08Q243.79-4.49 243.01-3.98 242.22-3.47 241.39-2.88L241.39-2.88Q240.71-2.44 239.9-1.88 239.1-1.32 238.22-0.78 237.34-0.24 236.44 0.17 235.53 0.59 234.75 0.73L234.75 0.73Q234.02 0.93 232.8 0.9 231.58 0.88 230.75 0.88L230.75 0.88Q228.7 0.98 226.65 1.03 224.6 1.07 222.45 1.07L222.45 1.07Q221.47 1.07 220.2 1.1 218.93 1.12 217.91 0.88L217.91 0.88Q217.61 0.83 216.93 0.42 216.25 0 215.39-0.61 214.54-1.22 213.61-1.93 212.68-2.64 211.83-3.3 210.97-3.96 210.36-4.47 209.75-4.98 209.51-5.18L209.51-5.18Q209.26-7.76 209.14-10.33 209.02-12.89 209.02-15.48L209.02-15.48Q209.02-20.51 209.39-25.44 209.75-30.37 210.19-35.35L210.19-35.35 220.25-35.6Q219.76-32.47 219.57-28.98 219.37-25.49 219.37-22.27L219.37-22.27Q219.37-21.73 219.42-20.39 219.47-19.04 219.62-17.53 219.76-16.02 219.98-14.75 220.2-13.48 220.54-13.09L220.54-13.09Q220.69-12.94 221.3-12.82 221.91-12.7 222.77-12.6 223.62-12.5 224.6-12.45 225.57-12.4 226.45-12.38 227.33-12.35 228.01-12.33 228.7-12.3 228.99-12.3L228.99-12.3Q229.24-12.3 229.82-12.3 230.41-12.3 231.02-12.33 231.63-12.35 232.17-12.4 232.7-12.45 232.9-12.6L232.9-12.6Q233.48-12.99 233.78-14.5 234.07-16.02 234.22-17.82 234.36-19.63 234.36-21.29 234.36-22.95 234.36-23.68L234.36-23.68Q234.36-24.8 234.39-25.93 234.41-27.05 234.41-28.17L234.41-28.17Q234.41-30.47 234.36-32.69 234.31-34.91 234.22-37.21L234.22-37.21Q235.24-37.11 236.24-37.08 237.24-37.06 238.27-37.06L238.27-37.06Q239.49-37.06 240.69-37.11 241.88-37.16 243.05-37.4L243.05-37.4Q244.08-32.18 244.64-26.83 245.2-21.48 245.2-16.11ZM279.23-36.23L279.77-29.74Q274.99-29.49 270.27-29.22 265.56-28.96 260.78-28.56L260.78-28.56 260.68-24.71 273.28-25.44Q273.52-23.78 273.64-22.17 273.76-20.56 273.76-18.9L273.76-18.9Q273.76-18.21 273.74-17.48 273.72-16.75 273.72-16.06L273.72-16.06 262-13.96 262.73-7.91Q266.44-8.15 270.13-8.62 273.81-9.08 277.57-9.42L277.57-9.42Q277.91-6.98 278.26-4.52 278.6-2.05 279.23 0.29L279.23 0.29Q272.3 0.24 265.46 0.32 258.63 0.39 251.69 0.39L251.69 0.39Q251.84-5.32 252.04-10.99 252.23-16.65 252.23-22.41L252.23-22.41 252.23-23.34Q252.23-26.66 252.13-29.96 252.04-33.25 251.94-36.62L251.94-36.62Q255.8-36.57 259.63-36.6 263.46-36.62 267.37-36.62L267.37-36.62Q270.35-36.62 273.3-36.5 276.25-36.38 279.23-36.23L279.23-36.23ZM307.01-10.35L307.75-1.22Q301.94-0.78 296.2-0.39 290.46 0 284.65 0.34L284.65 0.34Q284.41-8.98 284.26-18.19 284.11-27.39 283.72-36.77L283.72-36.77Q286.99-36.82 290.17-36.96 293.34-37.11 296.56-37.35L296.56-37.35Q296.03-33.74 295.56-30.1 295.1-26.46 294.86-22.8L294.86-22.8Q294.66-19.73 294.54-16.67 294.42-13.62 294.32-10.55L294.32-10.55Q297.54-10.45 300.69-10.45 303.84-10.45 307.01-10.35L307.01-10.35ZM345.34 0.15L345.49 4Q343.04 2.29 340.6-0.39 338.16-3.08 336.21-6.25 334.25-9.42 333.03-12.84 331.81-16.26 331.81-19.43L331.81-19.43Q331.81-22.46 332.59-25.46 333.38-28.47 334.72-31.3 336.06-34.13 337.84-36.72 339.63-39.31 341.63-41.5L341.63-41.5 342.85-37.84Q341.38-36.38 340.43-34.45 339.48-32.52 338.94-30.4 338.41-28.27 338.19-26.1 337.97-23.93 337.97-21.97L337.97-21.97Q337.97-19.48 338.43-16.33 338.89-13.18 339.82-10.06 340.75-6.93 342.14-4.2 343.53-1.46 345.34 0.15L345.34 0.15ZM384.45-17.53L384.45-17.53Q384.45-16.11 384.45-14.55 384.45-12.99 384.11-11.57L384.11-11.57Q383.86-10.5 383.57-9.69 383.28-8.89 382.84-8.23 382.4-7.57 381.76-7.01 381.13-6.45 380.2-5.91L380.2-5.91Q379.91-5.71 378.64-5.4 377.37-5.08 375.49-4.64 373.61-4.2 371.29-3.71 368.97-3.22 366.55-2.76 364.14-2.29 361.77-1.83 359.4-1.37 357.47-1 355.54-0.63 354.2-0.37 352.86-0.1 352.42-0.05L352.42-0.05Q351.59-8.98 350.85-17.77 350.12-26.56 349.73-35.55L349.73-35.55Q353.83-35.4 357.89-35.23 361.94-35.06 366.09-34.77L366.09-34.77Q367.16-34.67 369.24-34.52 371.31-34.38 373.56-34.11 375.81-33.84 377.78-33.45 379.76-33.06 380.64-32.47L380.64-32.47Q381.76-31.64 382.64-30.22 383.52-28.81 383.91-27.44L383.91-27.44Q384.11-26.81 384.2-25.46 384.3-24.12 384.35-22.61 384.4-21.09 384.42-19.68 384.45-18.26 384.45-17.53ZM372.29-16.89L372.29-16.89Q372.29-17.43 372.27-18.04 372.24-18.65 372.19-19.19L372.19-19.19Q372.09-19.97 371.92-20.83 371.75-21.68 371.46-22.49 371.17-23.29 370.73-24 370.29-24.71 369.65-25.24L369.65-25.24Q369.31-25.54 367.99-25.71 366.67-25.88 365.11-25.95 363.55-26.03 362.18-26.05 360.81-26.07 360.42-26.07L360.42-26.07 358.42-26.07Q358.81-22.27 359.13-18.58 359.45-14.89 359.69-11.08L359.69-11.08Q360.62-11.13 362.35-11.35 364.09-11.57 365.89-11.94 367.7-12.3 369.26-12.87 370.82-13.43 371.51-14.21L371.51-14.21Q372.05-14.79 372.17-15.45 372.29-16.11 372.29-16.89ZM417.75-36.23L418.28-29.74Q413.5-29.49 408.79-29.22 404.07-28.96 399.29-28.56L399.29-28.56 399.19-24.71 411.79-25.44Q412.03-23.78 412.16-22.17 412.28-20.56 412.28-18.9L412.28-18.9Q412.28-18.21 412.25-17.48 412.23-16.75 412.23-16.06L412.23-16.06 400.51-13.96 401.24-7.91Q404.95-8.15 408.64-8.62 412.33-9.08 416.09-9.42L416.09-9.42Q416.43-6.98 416.77-4.52 417.11-2.05 417.75 0.29L417.75 0.29Q410.81 0.24 403.98 0.32 397.14 0.39 390.21 0.39L390.21 0.39Q390.35-5.32 390.55-10.99 390.74-16.65 390.74-22.41L390.74-22.41 390.74-23.34Q390.74-26.66 390.65-29.96 390.55-33.25 390.45-36.62L390.45-36.62Q394.31-36.57 398.14-36.6 401.97-36.62 405.88-36.62L405.88-36.62Q408.86-36.62 411.81-36.5 414.77-36.38 417.75-36.23L417.75-36.23ZM453.24-37.84L453.24-37.84Q451.29-28.32 449.21-18.99 447.14-9.67 444.94-0.24L444.94-0.24 429.32 0Q428.1-5.27 426.85-10.52 425.6-15.77 424.04-21L424.04-21Q422.92-24.95 421.72-28.81 420.53-32.67 419.26-36.57L419.26-36.57Q420.97-36.38 422.7-36.23 424.43-36.08 426.14-36.08L426.14-36.08Q426.53-36.08 426.87-36.08 427.22-36.08 427.61-36.18L427.61-36.18Q429.56-30.03 431.66-24.1 433.76-18.16 435.96-12.11L435.96-12.11Q437.42-15.63 438.81-19.17 440.2-22.71 441.62-26.27L441.62-26.27Q441.72-26.51 442.06-27.49 442.4-28.47 442.87-29.76 443.33-31.05 443.84-32.5 444.35-33.94 444.77-35.16 445.18-36.38 445.45-37.18 445.72-37.99 445.72-37.99L445.72-37.99Q446.26-37.89 446.77-37.89 447.28-37.89 447.82-37.89L447.82-37.89Q449.24-37.84 450.56-37.84 451.87-37.84 453.24-37.84ZM484.54-36.23L485.07-29.74Q480.29-29.49 475.58-29.22 470.87-28.96 466.08-28.56L466.08-28.56 465.98-24.71 478.58-25.44Q478.82-23.78 478.95-22.17 479.07-20.56 479.07-18.9L479.07-18.9Q479.07-18.21 479.04-17.48 479.02-16.75 479.02-16.06L479.02-16.06 467.3-13.96 468.03-7.91Q471.74-8.15 475.43-8.62 479.12-9.08 482.88-9.42L482.88-9.42Q483.22-6.98 483.56-4.52 483.9-2.05 484.54 0.29L484.54 0.29Q477.6 0.24 470.77 0.32 463.93 0.39 457 0.39L457 0.39Q457.15-5.32 457.34-10.99 457.54-16.65 457.54-22.41L457.54-22.41 457.54-23.34Q457.54-26.66 457.44-29.96 457.34-33.25 457.24-36.62L457.24-36.62Q461.1-36.57 464.93-36.6 468.77-36.62 472.67-36.62L472.67-36.62Q475.65-36.62 478.61-36.5 481.56-36.38 484.54-36.23L484.54-36.23ZM512.32-10.35L513.05-1.22Q507.24-0.78 501.5-0.39 495.77 0 489.96 0.34L489.96 0.34Q489.71-8.98 489.56-18.19 489.42-27.39 489.03-36.77L489.03-36.77Q492.3-36.82 495.47-36.96 498.65-37.11 501.87-37.35L501.87-37.35Q501.33-33.74 500.87-30.1 500.4-26.46 500.16-22.8L500.16-22.8Q499.97-19.73 499.84-16.67 499.72-13.62 499.62-10.55L499.62-10.55Q502.85-10.45 506-10.45 509.14-10.45 512.32-10.35L512.32-10.35ZM557.73-20.85L557.73-20.85Q557.73-20.21 557.73-19.6 557.73-18.99 557.68-18.41L557.68-18.41Q557.63-17.92 557.56-16.7 557.48-15.48 557.36-13.89 557.24-12.3 557.07-10.55 556.9-8.79 556.68-7.3 556.46-5.81 556.21-4.74 555.97-3.66 555.72-3.42L555.72-3.42Q554.26-1.95 552.23-1.25 550.21-0.54 548.01-0.29 545.81-0.05 543.61-0.1 541.42-0.15 539.51-0.15L539.51-0.15Q538.88-0.15 537.36-0.17 535.85-0.2 533.92-0.24 531.99-0.29 529.89-0.42 527.79-0.54 525.96-0.76 524.13-0.98 522.79-1.29 521.45-1.61 521.11-2.1L521.11-2.1Q520.71-2.64 520.42-3.27 520.13-3.91 519.88-4.49L519.88-4.49Q519.25-6.1 518.71-7.93 518.18-9.77 517.81-11.69 517.44-13.62 517.22-15.53 517-17.43 517-19.14L517-19.14Q517-20.07 517.15-21.56 517.3-23.05 517.54-24.78 517.78-26.51 518.13-28.32 518.47-30.13 518.88-31.69 519.3-33.25 519.79-34.4 520.27-35.55 520.86-35.94L520.86-35.94Q521.35-36.28 522.67-36.57 523.99-36.87 525.74-37.08 527.5-37.3 529.5-37.48 531.51-37.65 533.31-37.77 535.12-37.89 536.58-37.94 538.05-37.99 538.73-37.99L538.73-37.99Q539.66-37.99 541.25-37.89 542.83-37.79 544.69-37.57 546.54-37.35 548.45-37.04 550.35-36.72 551.99-36.28 553.62-35.84 554.8-35.3 555.97-34.77 556.26-34.13L556.26-34.13Q556.51-33.59 556.73-32.59 556.94-31.59 557.09-30.32 557.24-29.05 557.36-27.64 557.48-26.22 557.56-24.93 557.63-23.63 557.68-22.56 557.73-21.48 557.73-20.85ZM548.99-19.24L548.99-19.24Q548.99-20.21 548.89-21.31 548.79-22.41 548.25-23.24L548.25-23.24Q547.86-23.83 546.37-24.17 544.88-24.51 543.1-24.66 541.32-24.8 539.66-24.83 538-24.85 537.32-24.85L537.32-24.85Q536.78-24.85 535.44-24.76 534.09-24.66 532.6-24.44 531.11-24.22 529.85-23.9 528.58-23.58 528.28-23.14L528.28-23.14Q527.99-22.8 527.82-21.85 527.65-20.9 527.53-19.8 527.4-18.7 527.36-17.7 527.31-16.7 527.31-16.26L527.31-16.26Q527.31-15.87 527.33-15.09 527.36-14.31 527.45-13.48 527.55-12.65 527.67-11.91 527.79-11.18 528.04-10.84L528.04-10.84Q528.19-10.6 528.92-10.4 529.65-10.21 530.7-10.03 531.75-9.86 532.92-9.77 534.09-9.67 535.19-9.59 536.29-9.52 537.15-9.5 538-9.47 538.34-9.47L538.34-9.47Q538.93-9.47 540.37-9.57 541.81-9.67 543.4-9.89 544.98-10.11 546.32-10.42 547.67-10.74 548.06-11.18L548.06-11.18Q548.35-11.52 548.55-12.62 548.74-13.72 548.84-15.01 548.94-16.31 548.96-17.5 548.99-18.7 548.99-19.24ZM599.91-24.51L599.91-24.51Q599.91-23.44 599.79-21.92 599.67-20.41 599.4-18.85 599.13-17.29 598.64-15.92 598.15-14.55 597.42-13.77L597.42-13.77Q597.13-13.43 595.54-13.11 593.95-12.79 591.73-12.48 589.51-12.16 586.97-11.87 584.43-11.57 582.16-11.35 579.89-11.13 578.23-10.99 576.57-10.84 576.13-10.84L576.13-10.84 575.74-0.68Q574.23-0.59 572.76-0.66 571.3-0.73 569.78-0.73L569.78-0.73Q568.81-0.73 567.83-0.68 566.85-0.63 565.88-0.54L565.88-0.54Q565.88-5.13 565.88-9.62 565.88-14.11 565.68-18.7L565.68-18.7Q565.54-22.85 565.41-26.95 565.29-31.05 565.19-35.21L565.19-35.21Q570.22-35.55 575.33-36.06 580.43-36.57 585.51-36.57L585.51-36.57Q586.39-36.57 588.29-36.4 590.19-36.23 592.29-35.86 594.39-35.5 596.18-34.96 597.96-34.42 598.54-33.74L598.54-33.74Q598.93-33.3 599.2-32.03 599.47-30.76 599.62-29.32 599.76-27.88 599.84-26.51 599.91-25.15 599.91-24.51ZM586.24-24.85L586.24-24.85Q586.24-25.29 586.19-25.98 586.14-26.66 586.02-27.32 585.9-27.98 585.65-28.54 585.41-29.1 585.02-29.35L585.02-29.35Q584.77-29.49 584.24-29.59 583.7-29.69 583.11-29.74 582.53-29.79 581.99-29.81 581.45-29.83 581.21-29.83L581.21-29.83Q579.4-29.83 577.6-29.64 575.79-29.44 573.93-29.15L573.93-29.15Q574.08-27.69 574.11-26.27 574.13-24.85 574.13-23.44L574.13-23.44Q574.13-21.14 574.28-18.8L574.28-18.8Q574.91-18.8 576.47-18.87 578.04-18.95 579.75-19.12 581.45-19.29 582.97-19.6 584.48-19.92 585.02-20.46L585.02-20.46Q585.9-21.29 586.07-22.49 586.24-23.68 586.24-24.85ZM632.67-36.23L633.21-29.74Q628.42-29.49 623.71-29.22 619-28.96 614.22-28.56L614.22-28.56 614.12-24.71 626.72-25.44Q626.96-23.78 627.08-22.17 627.2-20.56 627.2-18.9L627.2-18.9Q627.2-18.21 627.18-17.48 627.15-16.75 627.15-16.06L627.15-16.06 615.44-13.96 616.17-7.91Q619.88-8.15 623.57-8.62 627.25-9.08 631.01-9.42L631.01-9.42Q631.35-6.98 631.7-4.52 632.04-2.05 632.67 0.29L632.67 0.29Q625.74 0.24 618.9 0.32 612.07 0.39 605.13 0.39L605.13 0.39Q605.28-5.32 605.48-10.99 605.67-16.65 605.67-22.41L605.67-22.41 605.67-23.34Q605.67-26.66 605.57-29.96 605.48-33.25 605.38-36.62L605.38-36.62Q609.23-36.57 613.07-36.6 616.9-36.62 620.81-36.62L620.81-36.62Q623.79-36.62 626.74-36.5 629.69-36.38 632.67-36.23L632.67-36.23ZM672.9-24.56L672.9-24.56Q672.9-20.56 670.46-18.26 668.02-15.97 664.02-15.77L664.02-15.77Q668.85-7.71 672.46 0.73L672.46 0.73 658.21 1.07Q657.82-2.88 657.04-6.2 656.25-9.52 654.84-13.18L654.84-13.18Q653.23-13.09 651.64-12.94 650.05-12.79 648.49-12.7L648.49-12.7 648.73-1.61Q645.95-1.46 643.17-1.46L643.17-1.46Q641.75-1.46 640.41-1.51 639.07-1.56 637.7-1.71L637.7-1.71Q638.04-6.2 638.33-10.67 638.63-15.14 638.68-19.58L638.68-19.58Q638.82-27.49 639.12-35.4L639.12-35.4Q643.7-35.64 648.27-35.94 652.84-36.23 657.43-36.23L657.43-36.23Q658.6-36.23 659.96-36.18 661.33-36.13 662.72-35.91 664.12-35.69 665.41-35.3 666.7-34.91 667.73-34.28L667.73-34.28Q670.22-32.71 671.56-30.1 672.9-27.49 672.9-24.56ZM661.58-25.34L661.58-25.34Q661.58-25.73 661.55-26.42 661.53-27.1 661.43-27.81 661.33-28.52 661.14-29.13 660.94-29.74 660.6-30.03L660.6-30.03Q660.36-30.22 659.77-30.32 659.18-30.42 658.52-30.49 657.87-30.57 657.25-30.59 656.64-30.62 656.4-30.62L656.4-30.62Q654.45-30.62 652.57-30.42 650.69-30.22 648.83-29.93L648.83-29.93 650.15-20.46Q651.22-20.21 652.4-20.12 653.57-20.02 654.69-20.02L654.69-20.02Q655.18-20.02 656.13-20.07 657.08-20.12 658.08-20.26 659.09-20.41 659.94-20.68 660.79-20.95 661.14-21.39L661.14-21.39Q661.28-21.58 661.38-22.14 661.48-22.71 661.5-23.32 661.53-23.93 661.55-24.51 661.58-25.1 661.58-25.34ZM689.41-18.16L689.41-18.16Q689.41-15.09 688.36-11.94 687.31-8.79 685.62-5.81 683.94-2.83 681.79-0.22 679.64 2.39 677.49 4.35L677.49 4.35 676.66 0.68Q678.47-0.88 679.71-3.17 680.96-5.47 681.72-8.08 682.47-10.69 682.81-13.38 683.16-16.06 683.16-18.36L683.16-18.36Q683.16-20.41 682.86-23.07 682.57-25.73 681.91-28.42 681.25-31.1 680.23-33.47 679.2-35.84 677.74-37.35L677.74-37.35 677.93-41.21Q680.32-39.31 682.4-36.65 684.47-33.98 686.04-30.93 687.6-27.88 688.5-24.58 689.41-21.29 689.41-18.16Z" opacity="1" transform="matrix(1,0,0,1,0,0)" fill="#ffffff" class="undefined-text-1" data-fill-palette-color="secondary" id="text-1"></path></svg></g></svg></g></svg></g></svg></g></svg></g></svg></g></svg></g></svg></g></svg><rect width="395.52" height="247.2" fill="none" stroke="none" visibility="hidden"></rect></g></svg></g></svg>